<mxfile host="app.diagrams.net" modified="2024-01-15T18:57:10.868Z" agent="Mozilla/5.0 (Windows NT 10.0; Win64; x64) AppleWebKit/537.36 (KHTML, like Gecko) Chrome/120.0.0.0 Safari/537.36 Edg/120.0.0.0" etag="NTWDj3n6MG01uuJWCKMc" version="22.1.18" type="device">
  <diagram name="Page-1" id="5Mgk06HkU9ibWDkuRHIR">
    <mxGraphModel dx="1002" dy="577" grid="1" gridSize="10" guides="1" tooltips="1" connect="1" arrows="1" fold="1" page="1" pageScale="1" pageWidth="850" pageHeight="1100" math="0" shadow="0">
      <root>
        <mxCell id="0" />
        <mxCell id="1" parent="0" />
        <mxCell id="OYtzQfj80TmtmEDWyE_h-1" value="&lt;p style=&quot;margin:0px;margin-top:4px;text-align:center;text-decoration:underline;&quot;&gt;&lt;b&gt;Client&lt;/b&gt;&lt;/p&gt;&lt;hr&gt;&lt;p style=&quot;margin:0px;margin-left:8px;&quot;&gt;Name:Kleant&lt;/p&gt;&lt;p style=&quot;margin:0px;margin-left:8px;&quot;&gt;Surname:Adri&lt;/p&gt;&lt;p style=&quot;margin:0px;margin-left:8px;&quot;&gt;Email:kleant.adri@gmail.com&lt;/p&gt;&lt;p style=&quot;margin:0px;margin-left:8px;&quot;&gt;Phone:+355 68 30 13 078&lt;/p&gt;&lt;p style=&quot;margin:0px;margin-left:8px;&quot;&gt;Address:Korce&lt;/p&gt;&lt;p style=&quot;margin:0px;margin-left:8px;&quot;&gt;ID:K683013078A&lt;/p&gt;" style="verticalAlign=top;align=left;overflow=fill;fontSize=12;fontFamily=Helvetica;html=1;whiteSpace=wrap;" vertex="1" parent="1">
          <mxGeometry x="360" y="30" width="180" height="120" as="geometry" />
        </mxCell>
        <mxCell id="OYtzQfj80TmtmEDWyE_h-7" style="edgeStyle=orthogonalEdgeStyle;rounded=0;orthogonalLoop=1;jettySize=auto;html=1;exitX=1;exitY=0.5;exitDx=0;exitDy=0;entryX=0;entryY=0.5;entryDx=0;entryDy=0;" edge="1" parent="1" source="OYtzQfj80TmtmEDWyE_h-2" target="OYtzQfj80TmtmEDWyE_h-6">
          <mxGeometry relative="1" as="geometry" />
        </mxCell>
        <mxCell id="OYtzQfj80TmtmEDWyE_h-8" value="for the&amp;nbsp;" style="edgeLabel;html=1;align=center;verticalAlign=middle;resizable=0;points=[];" vertex="1" connectable="0" parent="OYtzQfj80TmtmEDWyE_h-7">
          <mxGeometry x="-0.0875" y="-1" relative="1" as="geometry">
            <mxPoint as="offset" />
          </mxGeometry>
        </mxCell>
        <mxCell id="OYtzQfj80TmtmEDWyE_h-2" value="&lt;p style=&quot;margin:0px;margin-top:4px;text-align:center;text-decoration:underline;&quot;&gt;&lt;b&gt;Booking&lt;/b&gt;&lt;/p&gt;&lt;hr&gt;&lt;p style=&quot;margin:0px;margin-left:8px;&quot;&gt;Date:15,01,2024&lt;/p&gt;&lt;p style=&quot;margin:0px;margin-left:8px;&quot;&gt;Staying:3 Days&lt;/p&gt;&lt;p style=&quot;margin:0px;margin-left:8px;&quot;&gt;Check In:15,01,2024&lt;/p&gt;&lt;p style=&quot;margin:0px;margin-left:8px;&quot;&gt;Check Out:18,01,2024&lt;/p&gt;&lt;p style=&quot;margin:0px;margin-left:8px;&quot;&gt;Payment:Pay-Pal&lt;/p&gt;&lt;p style=&quot;margin:0px;margin-left:8px;&quot;&gt;ID:K683013078A&lt;/p&gt;&lt;p style=&quot;margin:0px;margin-left:8px;&quot;&gt;Review:Very good services!&lt;/p&gt;&lt;p style=&quot;margin:0px;margin-left:8px;&quot;&gt;&lt;br&gt;&lt;/p&gt;" style="verticalAlign=top;align=left;overflow=fill;fontSize=12;fontFamily=Helvetica;html=1;whiteSpace=wrap;" vertex="1" parent="1">
          <mxGeometry x="70" y="210" width="160" height="140" as="geometry" />
        </mxCell>
        <mxCell id="OYtzQfj80TmtmEDWyE_h-3" style="edgeStyle=orthogonalEdgeStyle;rounded=0;orthogonalLoop=1;jettySize=auto;html=1;exitX=0;exitY=0.5;exitDx=0;exitDy=0;entryX=0.438;entryY=0;entryDx=0;entryDy=0;entryPerimeter=0;" edge="1" parent="1" source="OYtzQfj80TmtmEDWyE_h-1" target="OYtzQfj80TmtmEDWyE_h-2">
          <mxGeometry relative="1" as="geometry" />
        </mxCell>
        <mxCell id="OYtzQfj80TmtmEDWyE_h-10" value="makes the&amp;nbsp;" style="edgeLabel;html=1;align=center;verticalAlign=middle;resizable=0;points=[];" vertex="1" connectable="0" parent="OYtzQfj80TmtmEDWyE_h-3">
          <mxGeometry x="-0.1692" y="2" relative="1" as="geometry">
            <mxPoint as="offset" />
          </mxGeometry>
        </mxCell>
        <mxCell id="OYtzQfj80TmtmEDWyE_h-12" style="edgeStyle=orthogonalEdgeStyle;rounded=0;orthogonalLoop=1;jettySize=auto;html=1;exitX=1;exitY=0.5;exitDx=0;exitDy=0;entryX=0;entryY=0.5;entryDx=0;entryDy=0;" edge="1" parent="1" source="OYtzQfj80TmtmEDWyE_h-6" target="OYtzQfj80TmtmEDWyE_h-11">
          <mxGeometry relative="1" as="geometry" />
        </mxCell>
        <mxCell id="OYtzQfj80TmtmEDWyE_h-13" value="has the&amp;nbsp;" style="edgeLabel;html=1;align=center;verticalAlign=middle;resizable=0;points=[];" vertex="1" connectable="0" parent="OYtzQfj80TmtmEDWyE_h-12">
          <mxGeometry x="-0.2886" y="-2" relative="1" as="geometry">
            <mxPoint as="offset" />
          </mxGeometry>
        </mxCell>
        <mxCell id="OYtzQfj80TmtmEDWyE_h-6" value="&lt;p style=&quot;margin:0px;margin-top:4px;text-align:center;text-decoration:underline;&quot;&gt;&lt;b&gt;Room&lt;/b&gt;&lt;/p&gt;&lt;hr&gt;&lt;p style=&quot;margin:0px;margin-left:8px;&quot;&gt;RoomID:R101S&lt;/p&gt;&lt;p style=&quot;margin:0px;margin-left:8px;&quot;&gt;Capacity:4 Persons&lt;/p&gt;&lt;p style=&quot;margin:0px;margin-left:8px;&quot;&gt;Description:has a view from the balcony,parking is included,air conditioned,breakfast!&lt;/p&gt;&lt;p style=&quot;margin:0px;margin-left:8px;&quot;&gt;Image:room101.jpg&lt;/p&gt;" style="verticalAlign=top;align=left;overflow=fill;fontSize=12;fontFamily=Helvetica;html=1;whiteSpace=wrap;" vertex="1" parent="1">
          <mxGeometry x="330" y="290" width="160" height="180" as="geometry" />
        </mxCell>
        <mxCell id="OYtzQfj80TmtmEDWyE_h-11" value="&lt;p style=&quot;margin:0px;margin-top:4px;text-align:center;text-decoration:underline;&quot;&gt;&lt;b&gt;Type&lt;/b&gt;&lt;/p&gt;&lt;hr&gt;&lt;p style=&quot;margin:0px;margin-left:8px;&quot;&gt;Name:Quadruple Room&lt;/p&gt;&lt;p style=&quot;margin:0px;margin-left:8px;&quot;&gt;Type:Luxury&lt;/p&gt;&lt;p style=&quot;margin:0px;margin-left:8px;&quot;&gt;Price:200$&lt;/p&gt;" style="verticalAlign=top;align=left;overflow=fill;fontSize=12;fontFamily=Helvetica;html=1;whiteSpace=wrap;" vertex="1" parent="1">
          <mxGeometry x="580" y="430" width="160" height="90" as="geometry" />
        </mxCell>
      </root>
    </mxGraphModel>
  </diagram>
</mxfile>
